<svg xmlns="http://www.w3.org/2000/svg" xmlns:xlink="http://www.w3.org/1999/xlink" width="1780" height="1072" viewBox="0 0 1334.61 803.6"><g id="graph0" class="graph" transform="scale(1 1) rotate(0) translate(4 799.6)"><title>G</title><polygon fill="#fff" stroke="transparent" points="-4 4 -4 -799.6 1330.608 -799.6 1330.608 4 -4 4"/><g id="node1" class="node"><title>application</title><g id="a_node1"><a xlink:href="https://github.com/jupyterlab/jupyterlab/tree/master/packages/application" xlink:title="application"><ellipse cx="193.608" cy="-573.733" fill="none" stroke="#000" rx="50.091" ry="18"/><text x="193.608" y="-570.033" fill="#000" font-family="Times,serif" font-size="14" text-anchor="middle">application</text></a></g></g><g id="node2" class="node"><title>docregistry</title><g id="a_node2"><a xlink:href="https://github.com/jupyterlab/jupyterlab/tree/master/packages/docregistry" xlink:title="docregistry"><ellipse cx="339.608" cy="-478.733" fill="none" stroke="#000" rx="50.091" ry="18"/><text x="339.608" y="-475.033" fill="#000" font-family="Times,serif" font-size="14" text-anchor="middle">docregistry</text></a></g></g><g id="edge1" class="edge"><title>application-&gt;docregistry</title><path fill="none" stroke="#000" d="M218.045,-557.8319C242.2585,-542.0765 279.5179,-517.8324 306.4044,-500.3377"/><polygon fill="#000" stroke="#000" points="308.618 -503.073 315.091 -494.685 304.8 -497.206 308.618 -503.073"/></g><g id="node6" class="node"><title>rendermime</title><g id="a_node6"><a xlink:href="https://github.com/jupyterlab/jupyterlab/tree/master/packages/rendermime" xlink:title="rendermime"><ellipse cx="482.608" cy="-221.733" fill="none" stroke="#000" rx="53.891" ry="18"/><text x="482.608" y="-218.033" fill="#000" font-family="Times,serif" font-size="14" text-anchor="middle">rendermime</text></a></g></g><g id="edge3" class="edge"><title>docregistry-&gt;rendermime</title><path fill="none" stroke="#000" d="M346.4258,-460.8344C359.8753,-426.4309 391.7441,-349.2128 428.6626,-289.7327 437.9848,-274.7137 450.0904,-259.181 460.4713,-246.7588"/><polygon fill="#000" stroke="#000" points="463.187 -248.968 466.997 -239.082 457.854 -244.434 463.187 -248.968"/></g><g id="node3" class="node"><title>apputils</title><g id="a_node3"><a xlink:href="https://github.com/jupyterlab/jupyterlab/tree/master/packages/apputils" xlink:title="apputils"><ellipse cx="1015.608" cy="-364.733" fill="none" stroke="#000" rx="38.194" ry="18"/><text x="1015.608" y="-361.033" fill="#000" font-family="Times,serif" font-size="14" text-anchor="middle">apputils</text></a></g></g><g id="node4" class="node"><title>services</title><g id="a_node4"><a xlink:href="https://github.com/jupyterlab/jupyterlab/tree/master/packages/services" xlink:title="services"><ellipse cx="1138.608" cy="-316.733" fill="none" stroke="#000" rx="38.993" ry="18"/><text x="1138.608" y="-313.033" fill="#000" font-family="Times,serif" font-size="14" text-anchor="middle">services</text></a></g></g><g id="edge2" class="edge"><title>apputils-&gt;services</title><path fill="none" stroke="#000" d="M1045.3827,-353.1133C1061.5797,-346.7925 1081.8196,-338.894 1099.298,-332.0732"/><polygon fill="#000" stroke="#000" points="1100.638 -335.308 1108.681 -328.412 1098.093 -328.786 1100.638 -335.308"/></g><g id="node5" class="node"><title>coreutils</title><g id="a_node5"><a xlink:href="https://github.com/jupyterlab/jupyterlab/tree/master/packages/coreutils" xlink:title="coreutils"><ellipse cx="1274.608" cy="-316.733" fill="none" stroke="#000" rx="40.893" ry="18"/><text x="1274.608" y="-313.033" fill="#000" font-family="Times,serif" font-size="14" text-anchor="middle">coreutils</text></a></g></g><g id="edge6" class="edge"><title>services-&gt;coreutils</title><path fill="none" stroke="#000" d="M1177.9447,-316.7327C1192.0949,-316.7327 1208.2721,-316.7327 1223.2918,-316.7327"/><polygon fill="#000" stroke="#000" points="1223.466 -320.233 1233.466 -316.733 1223.466 -313.233 1223.466 -320.233"/></g><g id="node9" class="node"><title>observables</title><g id="a_node9"><a xlink:href="https://github.com/jupyterlab/jupyterlab/tree/master/packages/observables" xlink:title="observables"><ellipse cx="1274.608" cy="-221.733" fill="none" stroke="#000" rx="51.991" ry="18"/><text x="1274.608" y="-218.033" fill="#000" font-family="Times,serif" font-size="14" text-anchor="middle">observables</text></a></g></g><g id="edge7" class="edge"><title>services-&gt;observables</title><path fill="none" stroke="#000" d="M1160.1574,-301.6797C1182.4984,-286.0739 1217.653,-261.5173 1243.1088,-243.7357"/><polygon fill="#000" stroke="#000" points="1245.144 -246.584 1251.337 -237.988 1241.135 -240.845 1245.144 -246.584"/></g><g id="node7" class="node"><title>rendermime-interfaces</title><g id="a_node7"><a xlink:href="https://github.com/jupyterlab/jupyterlab/tree/master/packages/rendermime-interfaces" xlink:title="rendermime-interfaces"><ellipse cx="663.608" cy="-316.733" fill="none" stroke="#000" rx="90.984" ry="18"/><text x="663.608" y="-313.033" fill="#000" font-family="Times,serif" font-size="14" text-anchor="middle">rendermime-interfaces</text></a></g></g><g id="edge4" class="edge"><title>rendermime-&gt;rendermime-interfaces</title><path fill="none" stroke="#000" d="M511.6886,-236.9961C541.5577,-252.6733 588.3275,-277.221 622.0856,-294.9393"/><polygon fill="#000" stroke="#000" points="620.756 -298.194 631.237 -299.743 624.009 -291.996 620.756 -298.194"/></g><g id="node8" class="node"><title>codemirror</title><g id="a_node8"><a xlink:href="https://github.com/jupyterlab/jupyterlab/tree/master/packages/codemirror" xlink:title="codemirror"><ellipse cx="663.608" cy="-221.733" fill="none" stroke="#000" rx="50.091" ry="18"/><text x="663.608" y="-218.033" fill="#000" font-family="Times,serif" font-size="14" text-anchor="middle">codemirror</text></a></g></g><g id="edge5" class="edge"><title>rendermime-&gt;codemirror</title><path fill="none" stroke="#000" d="M536.9138,-221.7327C557.7643,-221.7327 581.6835,-221.7327 603.0823,-221.7327"/><polygon fill="#000" stroke="#000" points="603.36 -225.233 613.36 -221.733 603.36 -218.233 603.36 -225.233"/></g><g id="node14" class="node"><title>statusbar</title><g id="a_node14"><a xlink:href="https://github.com/jupyterlab/jupyterlab/tree/master/packages/statusbar" xlink:title="statusbar"><ellipse cx="866.608" cy="-221.733" fill="none" stroke="#000" rx="42.494" ry="18"/><text x="866.608" y="-218.033" fill="#000" font-family="Times,serif" font-size="14" text-anchor="middle">statusbar</text></a></g></g><g id="edge13" class="edge"><title>codemirror-&gt;statusbar</title><path fill="none" stroke="#000" d="M713.7876,-221.7327C744.2731,-221.7327 783.1404,-221.7327 814.0481,-221.7327"/><polygon fill="#000" stroke="#000" points="814.201 -225.233 824.201 -221.733 814.201 -218.233 814.201 -225.233"/></g><g id="node10" class="node"><title>attachments</title><g id="a_node10"><a xlink:href="https://github.com/jupyterlab/jupyterlab/tree/master/packages/attachments" xlink:title="attachments"><ellipse cx="339.608" cy="-221.733" fill="none" stroke="#000" rx="53.091" ry="18"/><text x="339.608" y="-218.033" fill="#000" font-family="Times,serif" font-size="14" text-anchor="middle">attachments</text></a></g></g><g id="edge8" class="edge"><title>attachments-&gt;rendermime</title><path fill="none" stroke="#000" d="M393.2626,-221.7327C401.4887,-221.7327 410.0514,-221.7327 418.4762,-221.7327"/><polygon fill="#000" stroke="#000" points="418.652 -225.233 428.652 -221.733 418.652 -218.233 418.652 -225.233"/></g><g id="node11" class="node"><title>cells</title><g id="a_node11"><a xlink:href="https://github.com/jupyterlab/jupyterlab/tree/master/packages/cells" xlink:title="cells"><ellipse cx="193.608" cy="-221.733" fill="none" stroke="#000" rx="27" ry="18"/><text x="193.608" y="-218.033" fill="#000" font-family="Times,serif" font-size="14" text-anchor="middle">cells</text></a></g></g><g id="edge9" class="edge"><title>cells-&gt;attachments</title><path fill="none" stroke="#000" d="M220.7272,-221.7327C236.3169,-221.7327 256.6015,-221.7327 275.9885,-221.7327"/><polygon fill="#000" stroke="#000" points="276.015 -225.233 286.015 -221.733 276.015 -218.233 276.015 -225.233"/></g><g id="node12" class="node"><title>outputarea</title><g id="a_node12"><a xlink:href="https://github.com/jupyterlab/jupyterlab/tree/master/packages/outputarea" xlink:title="outputarea"><ellipse cx="339.608" cy="-316.733" fill="none" stroke="#000" rx="48.192" ry="18"/><text x="339.608" y="-313.033" fill="#000" font-family="Times,serif" font-size="14" text-anchor="middle">outputarea</text></a></g></g><g id="edge10" class="edge"><title>cells-&gt;outputarea</title><path fill="none" stroke="#000" d="M212.9955,-234.348C236.9665,-249.9456 278.1263,-276.7276 306.9926,-295.5105"/><polygon fill="#000" stroke="#000" points="305.233 -298.541 315.524 -301.062 309.051 -292.674 305.233 -298.541"/></g><g id="edge14" class="edge"><title>outputarea-&gt;rendermime</title><path fill="none" stroke="#000" d="M363.2214,-301.0454C386.7409,-285.4205 423.0546,-261.2961 449.4583,-243.7552"/><polygon fill="#000" stroke="#000" points="451.607 -246.53 458 -238.081 447.734 -240.699 451.607 -246.53"/></g><g id="node13" class="node"><title>codeeditor</title><g id="a_node13"><a xlink:href="https://github.com/jupyterlab/jupyterlab/tree/master/packages/codeeditor" xlink:title="codeeditor"><ellipse cx="1138.608" cy="-221.733" fill="none" stroke="#000" rx="48.192" ry="18"/><text x="1138.608" y="-218.033" fill="#000" font-family="Times,serif" font-size="14" text-anchor="middle">codeeditor</text></a></g></g><g id="edge11" class="edge"><title>codeeditor-&gt;coreutils</title><path fill="none" stroke="#000" d="M1161.3712,-237.6336C1184.0988,-253.5095 1219.1652,-278.0044 1244.2516,-295.528"/><polygon fill="#000" stroke="#000" points="1242.47 -298.553 1252.672 -301.41 1246.478 -292.814 1242.47 -298.553"/></g><g id="edge12" class="edge"><title>codeeditor-&gt;observables</title><path fill="none" stroke="#000" d="M1186.9393,-221.7327C1195.0811,-221.7327 1203.6345,-221.7327 1212.0749,-221.7327"/><polygon fill="#000" stroke="#000" points="1212.279 -225.233 1222.279 -221.733 1212.279 -218.233 1212.279 -225.233"/></g><g id="edge15" class="edge"><title>statusbar-&gt;apputils</title><path fill="none" stroke="#000" d="M885.1749,-237.9148C900.6129,-251.5032 923.0429,-271.557 942.0012,-289.7327 959.3837,-306.3978 978.409,-325.8159 992.7621,-340.7179"/><polygon fill="#000" stroke="#000" points="990.359 -343.269 999.808 -348.06 995.41 -338.422 990.359 -343.269"/></g><g id="edge16" class="edge"><title>statusbar-&gt;codeeditor</title><path fill="none" stroke="#000" d="M909.1078,-221.7327C955.0967,-221.7327 1028.7324,-221.7327 1080.1543,-221.7327"/><polygon fill="#000" stroke="#000" points="1080.45 -225.233 1090.45 -221.733 1080.449 -218.233 1080.45 -225.233"/></g><g id="node15" class="node"><title>completer</title><g id="a_node15"><a xlink:href="https://github.com/jupyterlab/jupyterlab/tree/master/packages/completer" xlink:title="completer"><ellipse cx="866.608" cy="-126.733" fill="none" stroke="#000" rx="46.292" ry="18"/><text x="866.608" y="-123.033" fill="#000" font-family="Times,serif" font-size="14" text-anchor="middle">completer</text></a></g></g><g id="edge17" class="edge"><title>completer-&gt;apputils</title><path fill="none" stroke="#000" d="M888.7719,-142.5521C905.1919,-155.177 927.1962,-174.1155 942.0012,-194.7327 974.5268,-240.0277 996.7587,-301.9489 1007.7204,-337.1975"/><polygon fill="#000" stroke="#000" points="1004.385 -338.26 1010.636 -346.815 1011.084 -336.229 1004.385 -338.26"/></g><g id="edge18" class="edge"><title>completer-&gt;codeeditor</title><path fill="none" stroke="#000" d="M901.0568,-138.7646C949.9079,-155.8265 1039.3725,-187.0733 1093.4741,-205.9691"/><polygon fill="#000" stroke="#000" points="1092.552 -209.354 1103.147 -209.347 1094.86 -202.746 1092.552 -209.354"/></g><g id="node16" class="node"><title>console</title><g id="a_node16"><a xlink:href="https://github.com/jupyterlab/jupyterlab/tree/master/packages/console" xlink:title="console"><ellipse cx="50.608" cy="-221.733" fill="none" stroke="#000" rx="37.894" ry="18"/><text x="50.608" y="-218.033" fill="#000" font-family="Times,serif" font-size="14" text-anchor="middle">console</text></a></g></g><g id="edge19" class="edge"><title>console-&gt;cells</title><path fill="none" stroke="#000" d="M88.5538,-221.7327C109.5059,-221.7327 135.4295,-221.7327 156.2822,-221.7327"/><polygon fill="#000" stroke="#000" points="156.369 -225.233 166.369 -221.733 156.369 -218.233 156.369 -225.233"/></g><g id="node17" class="node"><title>csvviewer</title><g id="a_node17"><a xlink:href="https://github.com/jupyterlab/jupyterlab/tree/master/packages/csvviewer" xlink:title="csvviewer"><ellipse cx="193.608" cy="-478.733" fill="none" stroke="#000" rx="46.292" ry="18"/><text x="193.608" y="-475.033" fill="#000" font-family="Times,serif" font-size="14" text-anchor="middle">csvviewer</text></a></g></g><g id="edge20" class="edge"><title>csvviewer-&gt;docregistry</title><path fill="none" stroke="#000" d="M239.8032,-478.7327C252.262,-478.7327 265.9305,-478.7327 279.0469,-478.7327"/><polygon fill="#000" stroke="#000" points="279.414 -482.233 289.414 -478.733 279.414 -475.233 279.414 -482.233"/></g><g id="node18" class="node"><title>docmanager</title><g id="a_node18"><a xlink:href="https://github.com/jupyterlab/jupyterlab/tree/master/packages/docmanager" xlink:title="docmanager"><ellipse cx="193.608" cy="-668.733" fill="none" stroke="#000" rx="53.891" ry="18"/><text x="193.608" y="-665.033" fill="#000" font-family="Times,serif" font-size="14" text-anchor="middle">docmanager</text></a></g></g><g id="edge21" class="edge"><title>docmanager-&gt;docregistry</title><path fill="none" stroke="#000" d="M208.5508,-651.3614C220.1268,-637.7623 236.447,-618.2769 250.1528,-600.7327 275.6089,-568.1477 303.5876,-529.4996 321.3582,-504.57"/><polygon fill="#000" stroke="#000" points="324.256 -506.535 327.197 -496.357 318.55 -502.479 324.256 -506.535"/></g><g id="node19" class="node"><title>extensionmanager</title><g id="a_node19"><a xlink:href="https://github.com/jupyterlab/jupyterlab/tree/master/packages/extensionmanager" xlink:title="extensionmanager"><ellipse cx="866.608" cy="-506.733" fill="none" stroke="#000" rx="75.287" ry="18"/><text x="866.608" y="-503.033" fill="#000" font-family="Times,serif" font-size="14" text-anchor="middle">extensionmanager</text></a></g></g><g id="edge22" class="edge"><title>extensionmanager-&gt;apputils</title><path fill="none" stroke="#000" d="M886.7185,-489.1258C902.0629,-475.5646 923.6202,-456.237 942.0012,-438.7327 959.3215,-422.2385 978.3487,-403.081 992.7183,-388.3913"/><polygon fill="#000" stroke="#000" points="995.299 -390.758 999.774 -381.154 990.287 -385.871 995.299 -390.758"/></g><g id="node20" class="node"><title>filebrowser</title><g id="a_node20"><a xlink:href="https://github.com/jupyterlab/jupyterlab/tree/master/packages/filebrowser" xlink:title="filebrowser"><ellipse cx="50.608" cy="-668.733" fill="none" stroke="#000" rx="50.892" ry="18"/><text x="50.608" y="-665.033" fill="#000" font-family="Times,serif" font-size="14" text-anchor="middle">filebrowser</text></a></g></g><g id="edge23" class="edge"><title>filebrowser-&gt;docmanager</title><path fill="none" stroke="#000" d="M101.4269,-668.7327C110.5059,-668.7327 120.0716,-668.7327 129.466,-668.7327"/><polygon fill="#000" stroke="#000" points="129.562 -672.233 139.562 -668.733 129.562 -665.233 129.562 -672.233"/></g><g id="node21" class="node"><title>fileeditor</title><g id="a_node21"><a xlink:href="https://github.com/jupyterlab/jupyterlab/tree/master/packages/fileeditor" xlink:title="fileeditor"><ellipse cx="193.608" cy="-316.733" fill="none" stroke="#000" rx="42.793" ry="18"/><text x="193.608" y="-313.033" fill="#000" font-family="Times,serif" font-size="14" text-anchor="middle">fileeditor</text></a></g></g><g id="edge24" class="edge"><title>fileeditor-&gt;docregistry</title><path fill="none" stroke="#000" d="M208.9565,-333.7634C234.848,-362.4924 287.3049,-420.698 317.276,-453.9536"/><polygon fill="#000" stroke="#000" points="314.731 -456.357 324.026 -461.443 319.931 -451.671 314.731 -456.357"/></g><g id="node22" class="node"><title>imageviewer</title><g id="a_node22"><a xlink:href="https://github.com/jupyterlab/jupyterlab/tree/master/packages/imageviewer" xlink:title="imageviewer"><ellipse cx="193.608" cy="-763.733" fill="none" stroke="#000" rx="56.59" ry="18"/><text x="193.608" y="-760.033" fill="#000" font-family="Times,serif" font-size="14" text-anchor="middle">imageviewer</text></a></g></g><g id="edge25" class="edge"><title>imageviewer-&gt;docregistry</title><path fill="none" stroke="#000" d="M210.5657,-746.3979C222.7327,-733.2863 238.8996,-714.4066 250.1528,-695.7327 288.5279,-632.0525 317.642,-548.9154 331.2028,-506.4035"/><polygon fill="#000" stroke="#000" points="334.577 -507.339 334.236 -496.75 327.899 -505.241 334.577 -507.339"/></g><g id="node23" class="node"><title>inspector</title><g id="a_node23"><a xlink:href="https://github.com/jupyterlab/jupyterlab/tree/master/packages/inspector" xlink:title="inspector"><ellipse cx="339.608" cy="-126.733" fill="none" stroke="#000" rx="42.793" ry="18"/><text x="339.608" y="-123.033" fill="#000" font-family="Times,serif" font-size="14" text-anchor="middle">inspector</text></a></g></g><g id="edge26" class="edge"><title>inspector-&gt;rendermime</title><path fill="none" stroke="#000" d="M362.5833,-141.9961C386.1328,-157.6409 422.9797,-182.1196 449.6377,-199.8295"/><polygon fill="#000" stroke="#000" points="447.987 -202.935 458.254 -205.553 451.861 -197.105 447.987 -202.935"/></g><g id="node24" class="node"><title>launcher</title><g id="a_node24"><a xlink:href="https://github.com/jupyterlab/jupyterlab/tree/master/packages/launcher" xlink:title="launcher"><ellipse cx="866.608" cy="-411.733" fill="none" stroke="#000" rx="40.893" ry="18"/><text x="866.608" y="-408.033" fill="#000" font-family="Times,serif" font-size="14" text-anchor="middle">launcher</text></a></g></g><g id="edge27" class="edge"><title>launcher-&gt;apputils</title><path fill="none" stroke="#000" d="M900.0464,-401.185C921.8935,-394.2937 950.5917,-385.2412 973.9234,-377.8815"/><polygon fill="#000" stroke="#000" points="975.075 -381.188 983.558 -374.842 972.969 -374.513 975.075 -381.188"/></g><g id="node25" class="node"><title>mainmenu</title><g id="a_node25"><a xlink:href="https://github.com/jupyterlab/jupyterlab/tree/master/packages/mainmenu" xlink:title="mainmenu"><ellipse cx="866.608" cy="-316.733" fill="none" stroke="#000" rx="48.993" ry="18"/><text x="866.608" y="-313.033" fill="#000" font-family="Times,serif" font-size="14" text-anchor="middle">mainmenu</text></a></g></g><g id="edge28" class="edge"><title>mainmenu-&gt;apputils</title><path fill="none" stroke="#000" d="M903.4393,-328.5979C924.8128,-335.4833 951.7996,-344.1771 973.9463,-351.3116"/><polygon fill="#000" stroke="#000" points="973.152 -354.733 983.744 -354.468 975.298 -348.07 973.152 -354.733"/></g><g id="node26" class="node"><title>mathjax2</title><g id="a_node26"><a xlink:href="https://github.com/jupyterlab/jupyterlab/tree/master/packages/mathjax2" xlink:title="mathjax2"><ellipse cx="482.608" cy="-316.733" fill="none" stroke="#000" rx="44.393" ry="18"/><text x="482.608" y="-313.033" fill="#000" font-family="Times,serif" font-size="14" text-anchor="middle">mathjax2</text></a></g></g><g id="edge29" class="edge"><title>mathjax2-&gt;rendermime-interfaces</title><path fill="none" stroke="#000" d="M526.8854,-316.7327C537.6783,-316.7327 549.67,-316.7327 561.9399,-316.7327"/><polygon fill="#000" stroke="#000" points="562.292 -320.233 572.292 -316.733 562.292 -313.233 562.292 -320.233"/></g><g id="node27" class="node"><title>notebook</title><g id="a_node27"><a xlink:href="https://github.com/jupyterlab/jupyterlab/tree/master/packages/notebook" xlink:title="notebook"><ellipse cx="50.608" cy="-357.733" fill="none" stroke="#000" rx="43.592" ry="18"/><text x="50.608" y="-354.033" fill="#000" font-family="Times,serif" font-size="14" text-anchor="middle">notebook</text></a></g></g><g id="edge30" class="edge"><title>notebook-&gt;docregistry</title><path fill="none" stroke="#000" d="M81.2623,-370.5673C133.1406,-392.288 238.335,-436.3313 297.2307,-460.99"/><polygon fill="#000" stroke="#000" points="296.043 -464.287 306.619 -464.921 298.747 -457.83 296.043 -464.287"/></g><g id="edge31" class="edge"><title>notebook-&gt;cells</title><path fill="none" stroke="#000" d="M68.1425,-341.0565C93.7748,-316.6789 141.5292,-271.2621 170.1563,-244.0363"/><polygon fill="#000" stroke="#000" points="172.855 -246.3 177.689 -236.872 168.031 -241.228 172.855 -246.3"/></g><g id="node28" class="node"><title>running</title><g id="a_node28"><a xlink:href="https://github.com/jupyterlab/jupyterlab/tree/master/packages/running" xlink:title="running"><ellipse cx="866.608" cy="-696.733" fill="none" stroke="#000" rx="38.194" ry="18"/><text x="866.608" y="-693.033" fill="#000" font-family="Times,serif" font-size="14" text-anchor="middle">running</text></a></g></g><g id="edge32" class="edge"><title>running-&gt;apputils</title><path fill="none" stroke="#000" d="M888.9012,-681.9766C905.8363,-669.6533 928.4533,-650.6128 942.0012,-628.7327 989.6077,-551.8475 1007.097,-443.6155 1012.9484,-392.9566"/><polygon fill="#000" stroke="#000" points="1016.454 -393.09 1014.056 -382.77 1009.495 -392.333 1016.454 -393.09"/></g><g id="node29" class="node"><title>settingeditor</title><g id="a_node29"><a xlink:href="https://github.com/jupyterlab/jupyterlab/tree/master/packages/settingeditor" xlink:title="settingeditor"><ellipse cx="193.608" cy="-126.733" fill="none" stroke="#000" rx="54.691" ry="18"/><text x="193.608" y="-123.033" fill="#000" font-family="Times,serif" font-size="14" text-anchor="middle">settingeditor</text></a></g></g><g id="edge33" class="edge"><title>settingeditor-&gt;inspector</title><path fill="none" stroke="#000" d="M248.3882,-126.7327C260.7782,-126.7327 273.9163,-126.7327 286.2467,-126.7327"/><polygon fill="#000" stroke="#000" points="286.38 -130.233 296.38 -126.733 286.38 -123.233 286.38 -130.233"/></g><g id="node30" class="node"><title>terminal</title><g id="a_node30"><a xlink:href="https://github.com/jupyterlab/jupyterlab/tree/master/packages/terminal" xlink:title="terminal"><ellipse cx="866.608" cy="-601.733" fill="none" stroke="#000" rx="40.094" ry="18"/><text x="866.608" y="-598.033" fill="#000" font-family="Times,serif" font-size="14" text-anchor="middle">terminal</text></a></g></g><g id="edge34" class="edge"><title>terminal-&gt;apputils</title><path fill="none" stroke="#000" d="M888.0785,-586.4268C904.5599,-573.8003 926.968,-554.6202 942.0012,-533.7327 974.3293,-488.8152 996.5691,-427.4656 1007.5984,-392.3801"/><polygon fill="#000" stroke="#000" points="1010.951 -393.386 1010.536 -382.799 1004.258 -391.334 1010.951 -393.386"/></g><g id="node31" class="node"><title>tooltip</title><g id="a_node31"><a xlink:href="https://github.com/jupyterlab/jupyterlab/tree/master/packages/tooltip" xlink:title="tooltip"><ellipse cx="339.608" cy="-31.733" fill="none" stroke="#000" rx="33.595" ry="18"/><text x="339.608" y="-28.033" fill="#000" font-family="Times,serif" font-size="14" text-anchor="middle">tooltip</text></a></g></g><g id="edge35" class="edge"><title>tooltip-&gt;rendermime</title><path fill="none" stroke="#000" d="M352.8933,-48.3885C363.764,-62.0872 379.4793,-82.0521 392.9031,-99.7327 417.7894,-132.5108 445.783,-170.8207 463.7781,-195.6404"/><polygon fill="#000" stroke="#000" points="461.005 -197.779 469.705 -203.826 466.675 -193.673 461.005 -197.779"/></g></g></svg>